<svg width="40" height="40" viewBox="0 0 40 40" fill="none" xmlns="http://www.w3.org/2000/svg">
<rect width="40" height="40" rx="12" fill="#FE3939" fill-opacity="0.05"/>
<path d="M13 26H11C9.9 26 9 26.9 9 28C9 29.1 9.9 30 11 30H13C14.1 30 15 29.1 15 28C15 26.9 14.1 26 13 26Z" fill="url(#paint0_linear_433_26502)"/>
<path d="M21 24H19C17.9 24 17 24.9 17 26V28C17 29.1 17.9 30 19 30H21C22.1 30 23 29.1 23 28V26C23 24.9 22.1 24 21 24Z" fill="url(#paint1_linear_433_26502)"/>
<path d="M29 20H27C25.9 20 25 20.9 25 22V28C25 29.1 25.9 30 27 30H29C30.1 30 31 29.1 31 28V22C31 20.9 30.1 20 29 20Z" fill="url(#paint2_linear_433_26502)"/>
<path d="M30 10H23.4C22.5 10 22.1 11.1 22.7 11.7L24.6 13.6C20.9 17.8 15.6 21 10 21C9.4 21 9 21.4 9 22C9 22.6 9.4 23 10 23C16.7 23 22.9 21.1 27.4 16.4L29.2 18.2C29.8 18.8 30.9 18.4 30.9 17.5V11C31 10.4 30.6 10 30 10Z" fill="url(#paint3_linear_433_26502)"/>
<defs>
<linearGradient id="paint0_linear_433_26502" x1="12" y1="26" x2="12" y2="30" gradientUnits="userSpaceOnUse">
<stop stop-color="#FF5461"/>
<stop offset="1" stop-color="#970A14"/>
</linearGradient>
<linearGradient id="paint1_linear_433_26502" x1="20" y1="24" x2="20" y2="30" gradientUnits="userSpaceOnUse">
<stop stop-color="#FF5461"/>
<stop offset="1" stop-color="#970A14"/>
</linearGradient>
<linearGradient id="paint2_linear_433_26502" x1="28" y1="20" x2="28" y2="30" gradientUnits="userSpaceOnUse">
<stop stop-color="#FF5461"/>
<stop offset="1" stop-color="#970A14"/>
</linearGradient>
<linearGradient id="paint3_linear_433_26502" x1="19.9577" y1="10" x2="19.9577" y2="23" gradientUnits="userSpaceOnUse">
<stop stop-color="#FF5461"/>
<stop offset="1" stop-color="#970A14"/>
</linearGradient>
</defs>
</svg>
